<svg xmlns="http://www.w3.org/2000/svg" xmlns:xlink="http://www.w3.org/1999/xlink" viewBox="0,0,256,256" width="512px" height="512px"><g fill="#ffffff" fill-rule="nonzero" stroke="none" stroke-width="1" stroke-linecap="butt" stroke-linejoin="miter" stroke-miterlimit="10" stroke-dasharray="" stroke-dashoffset="0" font-family="none" font-weight="none" font-size="none" text-anchor="none" style="mix-blend-mode: normal"><g transform="scale(4,4)"><path d="M32,4c-13.946,0 -17,8.662 -17,12v6h-4c-2.209,0 -4,1.791 -4,4v22h50v-22c0,-2.209 -1.791,-4 -4,-4h-4v-6c0,-3.338 -3.054,-12 -17,-12zM32,8c10.611,0 13,5.925 13,8v6h-26v-6c0,-2.075 2.389,-8 13,-8zM32,30c2.209,0 4,1.791 4,4c0,1.477 -0.809,2.75231 -2,3.44531v2.55469c0,1.105 -0.895,2 -2,2c-1.105,0 -2,-0.895 -2,-2v-2.55469c-1.191,-0.693 -2,-1.96831 -2,-3.44531c0,-2.209 1.791,-4 4,-4zM6,50v2c0,2.209 1.791,4 4,4h44c2.209,0 4,-1.791 4,-4v-1z"></path></g></g></svg>